<?xml version="1.0" encoding="UTF-8"?>
<!DOCTYPE svg PUBLIC "-//W3C//DTD SVG 1.1//EN" "http://www.w3.org/Graphics/SVG/1.1/DTD/svg11.dtd">
<!--Generated by Origin-->
<svg xmlns="http://www.w3.org/2000/svg" xmlns:xlink="http://www.w3.org/1999/xlink" xmlns:olab="http://www.originlab.com/namespaces/olab" viewBox="0,0 3604,1064" width="12.010000in" height="3.543000in">
	<defs>
		<mask id="Cp_1">
			<rect x="449" y="12" width="3119" height="474" fill="white"/>
		</mask>
	</defs>
	<g mask="url(#Cp_1)">
		<rect x="0" y="0" width="3604" height="1064" visibility="hidden" fill="none" opacity="0"/>
		<polygon points="449,12 591,12 591,130 449,130" shape-rendering="crispEdges" fill="#5556A2" fill-rule="evenodd" stroke="none" olab:comment=""/>
		<polygon points="449,130 591,130 591,249 449,249" shape-rendering="crispEdges" fill="#5556A2" fill-rule="evenodd" stroke="none" olab:comment=""/>
		<polygon points="449,249 591,249 591,367 449,367" shape-rendering="crispEdges" fill="#6364A6" fill-rule="evenodd" stroke="none" olab:comment=""/>
		<polygon points="449,367 591,367 591,485 449,485" shape-rendering="crispEdges" fill="#333399" fill-rule="evenodd" stroke="none" olab:comment=""/>
		<polygon points="591,12 732,12 732,130 591,130" shape-rendering="crispEdges" fill="#6364A6" fill-rule="evenodd" stroke="none" olab:comment=""/>
		<polygon points="591,130 732,130 732,249 591,249" shape-rendering="crispEdges" fill="#5C5DA4" fill-rule="evenodd" stroke="none" olab:comment=""/>
		<polygon points="591,249 732,249 732,367 591,367" shape-rendering="crispEdges" fill="#6364A6" fill-rule="evenodd" stroke="none" olab:comment=""/>
		<polygon points="591,367 732,367 732,485 591,485" shape-rendering="crispEdges" fill="#7779AC" fill-rule="evenodd" stroke="none" olab:comment=""/>
		<polygon points="732,12 874,12 874,130 732,130" shape-rendering="crispEdges" fill="#6364A6" fill-rule="evenodd" stroke="none" olab:comment=""/>
		<polygon points="732,130 874,130 874,249 732,249" shape-rendering="crispEdges" fill="#6364A6" fill-rule="evenodd" stroke="none" olab:comment=""/>
		<polygon points="732,249 874,249 874,367 732,367" shape-rendering="crispEdges" fill="#6364A6" fill-rule="evenodd" stroke="none" olab:comment=""/>
		<polygon points="732,367 874,367 874,485 732,485" shape-rendering="crispEdges" fill="#7072AA" fill-rule="evenodd" stroke="none" olab:comment=""/>
		<polygon points="874,12 1016,12 1016,130 874,130" shape-rendering="crispEdges" fill="#6364A6" fill-rule="evenodd" stroke="none" olab:comment=""/>
		<polygon points="874,130 1016,130 1016,249 874,249" shape-rendering="crispEdges" fill="#696AA8" fill-rule="evenodd" stroke="none" olab:comment=""/>
		<polygon points="874,249 1016,249 1016,367 874,367" shape-rendering="crispEdges" fill="#4E4FA0" fill-rule="evenodd" stroke="none" olab:comment=""/>
		<polygon points="874,367 1016,367 1016,485 874,485" shape-rendering="crispEdges" fill="#8587B0" fill-rule="evenodd" stroke="none" olab:comment=""/>
		<polygon points="1016,12 1158,12 1158,130 1016,130" shape-rendering="crispEdges" fill="#6364A6" fill-rule="evenodd" stroke="none" olab:comment=""/>
		<polygon points="1016,130 1158,130 1158,249 1016,249" shape-rendering="crispEdges" fill="#6364A6" fill-rule="evenodd" stroke="none" olab:comment=""/>
		<polygon points="1016,249 1158,249 1158,367 1016,367" shape-rendering="crispEdges" fill="#7E80AE" fill-rule="evenodd" stroke="none" olab:comment=""/>
		<polygon points="1016,367 1158,367 1158,485 1016,485" shape-rendering="crispEdges" fill="#333399" fill-rule="evenodd" stroke="none" olab:comment=""/>
		<polygon points="1158,12 1299,12 1299,130 1158,130" shape-rendering="crispEdges" fill="#7072AA" fill-rule="evenodd" stroke="none" olab:comment=""/>
		<polygon points="1158,130 1299,130 1299,249 1158,249" shape-rendering="crispEdges" fill="#7779AC" fill-rule="evenodd" stroke="none" olab:comment=""/>
		<polygon points="1158,249 1299,249 1299,367 1158,367" shape-rendering="crispEdges" fill="#6364A6" fill-rule="evenodd" stroke="none" olab:comment=""/>
		<polygon points="1158,367 1299,367 1299,485 1158,485" shape-rendering="crispEdges" fill="#696AA8" fill-rule="evenodd" stroke="none" olab:comment=""/>
		<polygon points="1299,12 1441,12 1441,130 1299,130" shape-rendering="crispEdges" fill="#7072AA" fill-rule="evenodd" stroke="none" olab:comment=""/>
		<polygon points="1299,130 1441,130 1441,249 1299,249" shape-rendering="crispEdges" fill="#7779AC" fill-rule="evenodd" stroke="none" olab:comment=""/>
		<polygon points="1299,249 1441,249 1441,367 1299,367" shape-rendering="crispEdges" fill="#7072AA" fill-rule="evenodd" stroke="none" olab:comment=""/>
		<polygon points="1299,367 1441,367 1441,485 1299,485" shape-rendering="crispEdges" fill="#47479E" fill-rule="evenodd" stroke="none" olab:comment=""/>
		<polygon points="1441,12 1583,12 1583,130 1441,130" shape-rendering="crispEdges" fill="#7072AA" fill-rule="evenodd" stroke="none" olab:comment=""/>
		<polygon points="1441,130 1583,130 1583,249 1441,249" shape-rendering="crispEdges" fill="#7072AA" fill-rule="evenodd" stroke="none" olab:comment=""/>
		<polygon points="1441,249 1583,249 1583,367 1441,367" shape-rendering="crispEdges" fill="#7E80AE" fill-rule="evenodd" stroke="none" olab:comment=""/>
		<polygon points="1441,367 1583,367 1583,485 1441,485" shape-rendering="crispEdges" fill="#8B8EB2" fill-rule="evenodd" stroke="none" olab:comment=""/>
		<polygon points="1583,12 1725,12 1725,130 1583,130" shape-rendering="crispEdges" fill="#7E80AE" fill-rule="evenodd" stroke="none" olab:comment=""/>
		<polygon points="1583,130 1725,130 1725,249 1583,249" shape-rendering="crispEdges" fill="#7E80AE" fill-rule="evenodd" stroke="none" olab:comment=""/>
		<polygon points="1583,249 1725,249 1725,367 1583,367" shape-rendering="crispEdges" fill="#7E80AE" fill-rule="evenodd" stroke="none" olab:comment=""/>
		<polygon points="1583,367 1725,367 1725,485 1583,485" shape-rendering="crispEdges" fill="#AEB1BB" fill-rule="evenodd" stroke="none" olab:comment=""/>
		<polygon points="1725,12 1866,12 1866,130 1725,130" shape-rendering="crispEdges" fill="#7E80AE" fill-rule="evenodd" stroke="none" olab:comment=""/>
		<polygon points="1725,130 1866,130 1866,249 1725,249" shape-rendering="crispEdges" fill="#7E80AE" fill-rule="evenodd" stroke="none" olab:comment=""/>
		<polygon points="1725,249 1866,249 1866,367 1725,367" shape-rendering="crispEdges" fill="#8587B0" fill-rule="evenodd" stroke="none" olab:comment=""/>
		<polygon points="1725,367 1866,367 1866,485 1725,485" shape-rendering="crispEdges" fill="#9295B4" fill-rule="evenodd" stroke="none" olab:comment=""/>
		<polygon points="1866,12 2008,12 2008,130 1866,130" shape-rendering="crispEdges" fill="#8B8EB2" fill-rule="evenodd" stroke="none" olab:comment=""/>
		<polygon points="1866,130 2008,130 2008,249 1866,249" shape-rendering="crispEdges" fill="#8B8EB2" fill-rule="evenodd" stroke="none" olab:comment=""/>
		<polygon points="1866,249 2008,249 2008,367 1866,367" shape-rendering="crispEdges" fill="#7E80AE" fill-rule="evenodd" stroke="none" olab:comment=""/>
		<polygon points="1866,367 2008,367 2008,485 1866,485" shape-rendering="crispEdges" fill="#8587B0" fill-rule="evenodd" stroke="none" olab:comment=""/>
		<polygon points="2008,12 2150,12 2150,130 2008,130" shape-rendering="crispEdges" fill="#8B8EB2" fill-rule="evenodd" stroke="none" olab:comment=""/>
		<polygon points="2008,130 2150,130 2150,249 2008,249" shape-rendering="crispEdges" fill="#8587B0" fill-rule="evenodd" stroke="none" olab:comment=""/>
		<polygon points="2008,249 2150,249 2150,367 2008,367" shape-rendering="crispEdges" fill="#9A9CB5" fill-rule="evenodd" stroke="none" olab:comment=""/>
		<polygon points="2008,367 2150,367 2150,485 2008,485" shape-rendering="crispEdges" fill="#BCBFBF" fill-rule="evenodd" stroke="none" olab:comment=""/>
		<polygon points="2150,12 2291,12 2291,130 2150,130" shape-rendering="crispEdges" fill="#9295B4" fill-rule="evenodd" stroke="none" olab:comment=""/>
		<polygon points="2150,130 2291,130 2291,249 2150,249" shape-rendering="crispEdges" fill="#9A9CB5" fill-rule="evenodd" stroke="none" olab:comment=""/>
		<polygon points="2150,249 2291,249 2291,367 2150,367" shape-rendering="crispEdges" fill="#7779AC" fill-rule="evenodd" stroke="none" olab:comment=""/>
		<polygon points="2150,367 2291,367 2291,485 2150,485" shape-rendering="crispEdges" fill="#D7DBC7" fill-rule="evenodd" stroke="none" olab:comment=""/>
		<polygon points="2291,12 2433,12 2433,130 2291,130" shape-rendering="crispEdges" fill="#9A9CB5" fill-rule="evenodd" stroke="none" olab:comment=""/>
		<polygon points="2291,130 2433,130 2433,249 2291,249" shape-rendering="crispEdges" fill="#A1A3B7" fill-rule="evenodd" stroke="none" olab:comment=""/>
		<polygon points="2291,249 2433,249 2433,367 2291,367" shape-rendering="crispEdges" fill="#8B8EB2" fill-rule="evenodd" stroke="none" olab:comment=""/>
		<polygon points="2291,367 2433,367 2433,485 2291,485" shape-rendering="crispEdges" fill="#696AA8" fill-rule="evenodd" stroke="none" olab:comment=""/>
		<polygon points="2433,12 2575,12 2575,130 2433,130" shape-rendering="crispEdges" fill="#A1A3B7" fill-rule="evenodd" stroke="none" olab:comment=""/>
		<polygon points="2433,130 2575,130 2575,249 2433,249" shape-rendering="crispEdges" fill="#A1A3B7" fill-rule="evenodd" stroke="none" olab:comment=""/>
		<polygon points="2433,249 2575,249 2575,367 2433,367" shape-rendering="crispEdges" fill="#9A9CB5" fill-rule="evenodd" stroke="none" olab:comment=""/>
		<polygon points="2433,367 2575,367 2575,485 2433,485" shape-rendering="crispEdges" fill="#7E80AE" fill-rule="evenodd" stroke="none" olab:comment=""/>
		<polygon points="2575,12 2717,12 2717,130 2575,130" shape-rendering="crispEdges" fill="#A1A3B7" fill-rule="evenodd" stroke="none" olab:comment=""/>
		<polygon points="2575,130 2717,130 2717,249 2575,249" shape-rendering="crispEdges" fill="#A1A3B7" fill-rule="evenodd" stroke="none" olab:comment=""/>
		<polygon points="2575,249 2717,249 2717,367 2575,367" shape-rendering="crispEdges" fill="#B5B8BD" fill-rule="evenodd" stroke="none" olab:comment=""/>
		<polygon points="2575,367 2717,367 2717,485 2575,485" shape-rendering="crispEdges" fill="#7072AA" fill-rule="evenodd" stroke="none" olab:comment=""/>
		<polygon points="2717,12 2858,12 2858,130 2717,130" shape-rendering="crispEdges" fill="#A7AAB9" fill-rule="evenodd" stroke="none" olab:comment=""/>
		<polygon points="2717,130 2858,130 2858,249 2717,249" shape-rendering="crispEdges" fill="#A7AAB9" fill-rule="evenodd" stroke="none" olab:comment=""/>
		<polygon points="2717,249 2858,249 2858,367 2717,367" shape-rendering="crispEdges" fill="#9A9CB5" fill-rule="evenodd" stroke="none" olab:comment=""/>
		<polygon points="2717,367 2858,367 2858,485 2717,485" shape-rendering="crispEdges" fill="#F2F7CF" fill-rule="evenodd" stroke="none" olab:comment=""/>
		<polygon points="2858,12 3000,12 3000,130 2858,130" shape-rendering="crispEdges" fill="#AEB1BB" fill-rule="evenodd" stroke="none" olab:comment=""/>
		<polygon points="2858,130 3000,130 3000,249 2858,249" shape-rendering="crispEdges" fill="#AEB1BB" fill-rule="evenodd" stroke="none" olab:comment=""/>
		<polygon points="2858,249 3000,249 3000,367 2858,367" shape-rendering="crispEdges" fill="#B5B8BD" fill-rule="evenodd" stroke="none" olab:comment=""/>
		<polygon points="2858,367 3000,367 3000,485 2858,485" shape-rendering="crispEdges" fill="#696AA8" fill-rule="evenodd" stroke="none" olab:comment=""/>
		<polygon points="3000,12 3142,12 3142,130 3000,130" shape-rendering="crispEdges" fill="#B5B8BD" fill-rule="evenodd" stroke="none" olab:comment=""/>
		<polygon points="3000,130 3142,130 3142,249 3000,249" shape-rendering="crispEdges" fill="#B5B8BD" fill-rule="evenodd" stroke="none" olab:comment=""/>
		<polygon points="3000,249 3142,249 3142,367 3000,367" shape-rendering="crispEdges" fill="#B5B8BD" fill-rule="evenodd" stroke="none" olab:comment=""/>
		<polygon points="3000,367 3142,367 3142,485 3000,485" shape-rendering="crispEdges" fill="#C3C7C1" fill-rule="evenodd" stroke="none" olab:comment=""/>
		<polygon points="3142,12 3284,12 3284,130 3142,130" shape-rendering="crispEdges" fill="#BCBFBF" fill-rule="evenodd" stroke="none" olab:comment=""/>
		<polygon points="3142,130 3284,130 3284,249 3142,249" shape-rendering="crispEdges" fill="#B5B8BD" fill-rule="evenodd" stroke="none" olab:comment=""/>
		<polygon points="3142,249 3284,249 3284,367 3142,367" shape-rendering="crispEdges" fill="#BCBFBF" fill-rule="evenodd" stroke="none" olab:comment=""/>
		<polygon points="3142,367 3284,367 3284,485 3142,485" shape-rendering="crispEdges" fill="#F2F7CF" fill-rule="evenodd" stroke="none" olab:comment=""/>
		<polygon points="3284,12 3425,12 3425,130 3284,130" shape-rendering="crispEdges" fill="#C9CDC3" fill-rule="evenodd" stroke="none" olab:comment=""/>
		<polygon points="3284,130 3425,130 3425,249 3284,249" shape-rendering="crispEdges" fill="#C9CDC3" fill-rule="evenodd" stroke="none" olab:comment=""/>
		<polygon points="3284,249 3425,249 3425,367 3284,367" shape-rendering="crispEdges" fill="#C3C7C1" fill-rule="evenodd" stroke="none" olab:comment=""/>
		<polygon points="3284,367 3425,367 3425,485 3284,485" shape-rendering="crispEdges" fill="#AEB1BB" fill-rule="evenodd" stroke="none" olab:comment=""/>
		<polygon points="3425,12 3567,12 3567,130 3425,130" shape-rendering="crispEdges" fill="#FAFFD1" fill-rule="evenodd" stroke="none" olab:comment=""/>
		<polygon points="3425,130 3567,130 3567,249 3425,249" shape-rendering="crispEdges" fill="#FAFFD1" fill-rule="evenodd" stroke="none" olab:comment=""/>
		<polygon points="3425,249 3567,249 3567,367 3425,367" shape-rendering="crispEdges" fill="#FAFFD1" fill-rule="evenodd" stroke="none" olab:comment=""/>
		<polygon points="3425,367 3567,367 3567,485 3425,485" shape-rendering="crispEdges" fill="#C3C7C1" fill-rule="evenodd" stroke="none" olab:comment=""/>
		<text x="468" dominant-baseline="auto" y="97" fill="white" font-family="Arial,'MS PGothic',SimSun" font-size="75" font-weight="400" olab:comment="">
			<tspan x="468" style="font-kerning:none">6.8</tspan>
		</text>
		<text x="468" dominant-baseline="auto" y="215" fill="white" font-family="Arial,'MS PGothic',SimSun" font-size="75" font-weight="400" olab:comment="">
			<tspan x="468" style="font-kerning:none">6.8</tspan>
		</text>
		<text x="468" dominant-baseline="auto" y="334" fill="white" font-family="Arial,'MS PGothic',SimSun" font-size="75" font-weight="400" olab:comment="">
			<tspan x="468" style="font-kerning:none">7.7</tspan>
		</text>
		<text x="468" dominant-baseline="auto" y="452" fill="white" font-family="Arial,'MS PGothic',SimSun" font-size="75" font-weight="400" olab:comment="">
			<tspan x="468" style="font-kerning:none">3.5</tspan>
		</text>
		<text x="609" dominant-baseline="auto" y="97" fill="white" font-family="Arial,'MS PGothic',SimSun" font-size="75" font-weight="400" olab:comment="">
			<tspan x="609" style="font-kerning:none">7.7</tspan>
		</text>
		<text x="609" dominant-baseline="auto" y="215" fill="white" font-family="Arial,'MS PGothic',SimSun" font-size="75" font-weight="400" olab:comment="">
			<tspan x="609" style="font-kerning:none">7.4</tspan>
		</text>
		<text x="609" dominant-baseline="auto" y="334" fill="white" font-family="Arial,'MS PGothic',SimSun" font-size="75" font-weight="400" olab:comment="">
			<tspan x="609" style="font-kerning:none">8.2</tspan>
		</text>
		<text x="619" dominant-baseline="auto" y="452" fill="white" font-family="Arial,'MS PGothic',SimSun" font-size="75" font-weight="400" olab:comment="">
			<tspan x="619" style="font-kerning:none">10</tspan>
		</text>
		<text x="751" dominant-baseline="auto" y="97" fill="white" font-family="Arial,'MS PGothic',SimSun" font-size="75" font-weight="400" olab:comment="">
			<tspan x="751" style="font-kerning:none">7.9</tspan>
		</text>
		<text x="751" dominant-baseline="auto" y="215" fill="white" font-family="Arial,'MS PGothic',SimSun" font-size="75" font-weight="400" olab:comment="">
			<tspan x="751" style="font-kerning:none">7.7</tspan>
		</text>
		<text x="751" dominant-baseline="auto" y="334" fill="white" font-family="Arial,'MS PGothic',SimSun" font-size="75" font-weight="400" olab:comment="">
			<tspan x="751" style="font-kerning:none">8.0</tspan>
		</text>
		<text x="751" dominant-baseline="auto" y="452" fill="white" font-family="Arial,'MS PGothic',SimSun" font-size="75" font-weight="400" olab:comment="">
			<tspan x="751" style="font-kerning:none">9.5</tspan>
		</text>
		<text x="893" dominant-baseline="auto" y="97" fill="white" font-family="Arial,'MS PGothic',SimSun" font-size="75" font-weight="400" olab:comment="">
			<tspan x="893" style="font-kerning:none">8.0</tspan>
		</text>
		<text x="893" dominant-baseline="auto" y="215" fill="white" font-family="Arial,'MS PGothic',SimSun" font-size="75" font-weight="400" olab:comment="">
			<tspan x="893" style="font-kerning:none">8.5</tspan>
		</text>
		<text x="893" dominant-baseline="auto" y="334" fill="white" font-family="Arial,'MS PGothic',SimSun" font-size="75" font-weight="400" olab:comment="">
			<tspan x="893" style="font-kerning:none">5.8</tspan>
		</text>
		<text x="903" dominant-baseline="auto" y="452" fill="black" font-family="Arial,'MS PGothic',SimSun" font-size="75" font-weight="400" olab:comment="">
			<tspan x="903" style="font-kerning:none">11</tspan>
		</text>
		<text x="1035" dominant-baseline="auto" y="97" fill="white" font-family="Arial,'MS PGothic',SimSun" font-size="75" font-weight="400" olab:comment="">
			<tspan x="1035" style="font-kerning:none">8.1</tspan>
		</text>
		<text x="1035" dominant-baseline="auto" y="215" fill="white" font-family="Arial,'MS PGothic',SimSun" font-size="75" font-weight="400" olab:comment="">
			<tspan x="1035" style="font-kerning:none">7.7</tspan>
		</text>
		<text x="1045" dominant-baseline="auto" y="334" fill="black" font-family="Arial,'MS PGothic',SimSun" font-size="75" font-weight="400" olab:comment="">
			<tspan x="1045" style="font-kerning:none">10</tspan>
		</text>
		<text x="1035" dominant-baseline="auto" y="452" fill="white" font-family="Arial,'MS PGothic',SimSun" font-size="75" font-weight="400" olab:comment="">
			<tspan x="1035" style="font-kerning:none">3.0</tspan>
		</text>
		<text x="1176" dominant-baseline="auto" y="97" fill="white" font-family="Arial,'MS PGothic',SimSun" font-size="75" font-weight="400" olab:comment="">
			<tspan x="1176" style="font-kerning:none">9.3</tspan>
		</text>
		<text x="1176" dominant-baseline="auto" y="215" fill="white" font-family="Arial,'MS PGothic',SimSun" font-size="75" font-weight="400" olab:comment="">
			<tspan x="1176" style="font-kerning:none">9.7</tspan>
		</text>
		<text x="1176" dominant-baseline="auto" y="334" fill="white" font-family="Arial,'MS PGothic',SimSun" font-size="75" font-weight="400" olab:comment="">
			<tspan x="1176" style="font-kerning:none">8.2</tspan>
		</text>
		<text x="1176" dominant-baseline="auto" y="452" fill="white" font-family="Arial,'MS PGothic',SimSun" font-size="75" font-weight="400" olab:comment="">
			<tspan x="1176" style="font-kerning:none">8.5</tspan>
		</text>
		<text x="1318" dominant-baseline="auto" y="97" fill="white" font-family="Arial,'MS PGothic',SimSun" font-size="75" font-weight="400" olab:comment="">
			<tspan x="1318" style="font-kerning:none">9.6</tspan>
		</text>
		<text x="1318" dominant-baseline="auto" y="215" fill="white" font-family="Arial,'MS PGothic',SimSun" font-size="75" font-weight="400" olab:comment="">
			<tspan x="1318" style="font-kerning:none">9.9</tspan>
		</text>
		<text x="1318" dominant-baseline="auto" y="334" fill="white" font-family="Arial,'MS PGothic',SimSun" font-size="75" font-weight="400" olab:comment="">
			<tspan x="1318" style="font-kerning:none">9.6</tspan>
		</text>
		<text x="1318" dominant-baseline="auto" y="452" fill="white" font-family="Arial,'MS PGothic',SimSun" font-size="75" font-weight="400" olab:comment="">
			<tspan x="1318" style="font-kerning:none">5.0</tspan>
		</text>
		<text x="1460" dominant-baseline="auto" y="97" fill="white" font-family="Arial,'MS PGothic',SimSun" font-size="75" font-weight="400" olab:comment="">
			<tspan x="1460" style="font-kerning:none">9.6</tspan>
		</text>
		<text x="1460" dominant-baseline="auto" y="215" fill="white" font-family="Arial,'MS PGothic',SimSun" font-size="75" font-weight="400" olab:comment="">
			<tspan x="1460" style="font-kerning:none">9.0</tspan>
		</text>
		<text x="1470" dominant-baseline="auto" y="334" fill="black" font-family="Arial,'MS PGothic',SimSun" font-size="75" font-weight="400" olab:comment="">
			<tspan x="1470" style="font-kerning:none">11</tspan>
		</text>
		<text x="1470" dominant-baseline="auto" y="452" fill="black" font-family="Arial,'MS PGothic',SimSun" font-size="75" font-weight="400" olab:comment="">
			<tspan x="1470" style="font-kerning:none">12</tspan>
		</text>
		<text x="1612" dominant-baseline="auto" y="97" fill="black" font-family="Arial,'MS PGothic',SimSun" font-size="75" font-weight="400" olab:comment="">
			<tspan x="1612" style="font-kerning:none">11</tspan>
		</text>
		<text x="1612" dominant-baseline="auto" y="215" fill="black" font-family="Arial,'MS PGothic',SimSun" font-size="75" font-weight="400" olab:comment="">
			<tspan x="1612" style="font-kerning:none">10</tspan>
		</text>
		<text x="1612" dominant-baseline="auto" y="334" fill="black" font-family="Arial,'MS PGothic',SimSun" font-size="75" font-weight="400" olab:comment="">
			<tspan x="1612" style="font-kerning:none">11</tspan>
		</text>
		<text x="1612" dominant-baseline="auto" y="452" fill="black" font-family="Arial,'MS PGothic',SimSun" font-size="75" font-weight="400" olab:comment="">
			<tspan x="1612" style="font-kerning:none">16</tspan>
		</text>
		<text x="1753" dominant-baseline="auto" y="97" fill="black" font-family="Arial,'MS PGothic',SimSun" font-size="75" font-weight="400" olab:comment="">
			<tspan x="1753" style="font-kerning:none">11</tspan>
		</text>
		<text x="1753" dominant-baseline="auto" y="215" fill="black" font-family="Arial,'MS PGothic',SimSun" font-size="75" font-weight="400" olab:comment="">
			<tspan x="1753" style="font-kerning:none">11</tspan>
		</text>
		<text x="1753" dominant-baseline="auto" y="334" fill="black" font-family="Arial,'MS PGothic',SimSun" font-size="75" font-weight="400" olab:comment="">
			<tspan x="1753" style="font-kerning:none">11</tspan>
		</text>
		<text x="1753" dominant-baseline="auto" y="452" fill="black" font-family="Arial,'MS PGothic',SimSun" font-size="75" font-weight="400" olab:comment="">
			<tspan x="1753" style="font-kerning:none">13</tspan>
		</text>
		<text x="1895" dominant-baseline="auto" y="97" fill="black" font-family="Arial,'MS PGothic',SimSun" font-size="75" font-weight="400" olab:comment="">
			<tspan x="1895" style="font-kerning:none">12</tspan>
		</text>
		<text x="1895" dominant-baseline="auto" y="215" fill="black" font-family="Arial,'MS PGothic',SimSun" font-size="75" font-weight="400" olab:comment="">
			<tspan x="1895" style="font-kerning:none">12</tspan>
		</text>
		<text x="1895" dominant-baseline="auto" y="334" fill="black" font-family="Arial,'MS PGothic',SimSun" font-size="75" font-weight="400" olab:comment="">
			<tspan x="1895" style="font-kerning:none">11</tspan>
		</text>
		<text x="1895" dominant-baseline="auto" y="452" fill="black" font-family="Arial,'MS PGothic',SimSun" font-size="75" font-weight="400" olab:comment="">
			<tspan x="1895" style="font-kerning:none">11</tspan>
		</text>
		<text x="2037" dominant-baseline="auto" y="97" fill="black" font-family="Arial,'MS PGothic',SimSun" font-size="75" font-weight="400" olab:comment="">
			<tspan x="2037" style="font-kerning:none">12</tspan>
		</text>
		<text x="2037" dominant-baseline="auto" y="215" fill="black" font-family="Arial,'MS PGothic',SimSun" font-size="75" font-weight="400" olab:comment="">
			<tspan x="2037" style="font-kerning:none">11</tspan>
		</text>
		<text x="2037" dominant-baseline="auto" y="334" fill="black" font-family="Arial,'MS PGothic',SimSun" font-size="75" font-weight="400" olab:comment="">
			<tspan x="2037" style="font-kerning:none">13</tspan>
		</text>
		<text x="2037" dominant-baseline="auto" y="452" fill="black" font-family="Arial,'MS PGothic',SimSun" font-size="75" font-weight="400" olab:comment="">
			<tspan x="2037" style="font-kerning:none">17</tspan>
		</text>
		<text x="2178" dominant-baseline="auto" y="97" fill="black" font-family="Arial,'MS PGothic',SimSun" font-size="75" font-weight="400" olab:comment="">
			<tspan x="2178" style="font-kerning:none">13</tspan>
		</text>
		<text x="2178" dominant-baseline="auto" y="215" fill="black" font-family="Arial,'MS PGothic',SimSun" font-size="75" font-weight="400" olab:comment="">
			<tspan x="2178" style="font-kerning:none">13</tspan>
		</text>
		<text x="2178" dominant-baseline="auto" y="334" fill="white" font-family="Arial,'MS PGothic',SimSun" font-size="75" font-weight="400" olab:comment="">
			<tspan x="2178" style="font-kerning:none">10</tspan>
		</text>
		<text x="2178" dominant-baseline="auto" y="452" fill="black" font-family="Arial,'MS PGothic',SimSun" font-size="75" font-weight="400" olab:comment="">
			<tspan x="2178" style="font-kerning:none">20</tspan>
		</text>
		<text x="2320" dominant-baseline="auto" y="97" fill="black" font-family="Arial,'MS PGothic',SimSun" font-size="75" font-weight="400" olab:comment="">
			<tspan x="2320" style="font-kerning:none">13</tspan>
		</text>
		<text x="2320" dominant-baseline="auto" y="215" fill="black" font-family="Arial,'MS PGothic',SimSun" font-size="75" font-weight="400" olab:comment="">
			<tspan x="2320" style="font-kerning:none">14</tspan>
		</text>
		<text x="2320" dominant-baseline="auto" y="334" fill="black" font-family="Arial,'MS PGothic',SimSun" font-size="75" font-weight="400" olab:comment="">
			<tspan x="2320" style="font-kerning:none">12</tspan>
		</text>
		<text x="2310" dominant-baseline="auto" y="452" fill="white" font-family="Arial,'MS PGothic',SimSun" font-size="75" font-weight="400" olab:comment="">
			<tspan x="2310" style="font-kerning:none">8.5</tspan>
		</text>
		<text x="2462" dominant-baseline="auto" y="97" fill="black" font-family="Arial,'MS PGothic',SimSun" font-size="75" font-weight="400" olab:comment="">
			<tspan x="2462" style="font-kerning:none">14</tspan>
		</text>
		<text x="2462" dominant-baseline="auto" y="215" fill="black" font-family="Arial,'MS PGothic',SimSun" font-size="75" font-weight="400" olab:comment="">
			<tspan x="2462" style="font-kerning:none">14</tspan>
		</text>
		<text x="2462" dominant-baseline="auto" y="334" fill="black" font-family="Arial,'MS PGothic',SimSun" font-size="75" font-weight="400" olab:comment="">
			<tspan x="2462" style="font-kerning:none">13</tspan>
		</text>
		<text x="2462" dominant-baseline="auto" y="452" fill="black" font-family="Arial,'MS PGothic',SimSun" font-size="75" font-weight="400" olab:comment="">
			<tspan x="2462" style="font-kerning:none">11</tspan>
		</text>
		<text x="2604" dominant-baseline="auto" y="97" fill="black" font-family="Arial,'MS PGothic',SimSun" font-size="75" font-weight="400" olab:comment="">
			<tspan x="2604" style="font-kerning:none">14</tspan>
		</text>
		<text x="2604" dominant-baseline="auto" y="215" fill="black" font-family="Arial,'MS PGothic',SimSun" font-size="75" font-weight="400" olab:comment="">
			<tspan x="2604" style="font-kerning:none">14</tspan>
		</text>
		<text x="2604" dominant-baseline="auto" y="334" fill="black" font-family="Arial,'MS PGothic',SimSun" font-size="75" font-weight="400" olab:comment="">
			<tspan x="2604" style="font-kerning:none">16</tspan>
		</text>
		<text x="2594" dominant-baseline="auto" y="452" fill="white" font-family="Arial,'MS PGothic',SimSun" font-size="75" font-weight="400" olab:comment="">
			<tspan x="2594" style="font-kerning:none">9.5</tspan>
		</text>
		<text x="2745" dominant-baseline="auto" y="97" fill="black" font-family="Arial,'MS PGothic',SimSun" font-size="75" font-weight="400" olab:comment="">
			<tspan x="2745" style="font-kerning:none">15</tspan>
		</text>
		<text x="2745" dominant-baseline="auto" y="215" fill="black" font-family="Arial,'MS PGothic',SimSun" font-size="75" font-weight="400" olab:comment="">
			<tspan x="2745" style="font-kerning:none">15</tspan>
		</text>
		<text x="2745" dominant-baseline="auto" y="334" fill="black" font-family="Arial,'MS PGothic',SimSun" font-size="75" font-weight="400" olab:comment="">
			<tspan x="2745" style="font-kerning:none">14</tspan>
		</text>
		<text x="2745" dominant-baseline="auto" y="452" fill="black" font-family="Arial,'MS PGothic',SimSun" font-size="75" font-weight="400" olab:comment="">
			<tspan x="2745" style="font-kerning:none">22</tspan>
		</text>
		<text x="2887" dominant-baseline="auto" y="97" fill="black" font-family="Arial,'MS PGothic',SimSun" font-size="75" font-weight="400" olab:comment="">
			<tspan x="2887" style="font-kerning:none">15</tspan>
		</text>
		<text x="2887" dominant-baseline="auto" y="215" fill="black" font-family="Arial,'MS PGothic',SimSun" font-size="75" font-weight="400" olab:comment="">
			<tspan x="2887" style="font-kerning:none">16</tspan>
		</text>
		<text x="2887" dominant-baseline="auto" y="334" fill="black" font-family="Arial,'MS PGothic',SimSun" font-size="75" font-weight="400" olab:comment="">
			<tspan x="2887" style="font-kerning:none">16</tspan>
		</text>
		<text x="2877" dominant-baseline="auto" y="452" fill="white" font-family="Arial,'MS PGothic',SimSun" font-size="75" font-weight="400" olab:comment="">
			<tspan x="2877" style="font-kerning:none">8.5</tspan>
		</text>
		<text x="3029" dominant-baseline="auto" y="97" fill="black" font-family="Arial,'MS PGothic',SimSun" font-size="75" font-weight="400" olab:comment="">
			<tspan x="3029" style="font-kerning:none">16</tspan>
		</text>
		<text x="3029" dominant-baseline="auto" y="215" fill="black" font-family="Arial,'MS PGothic',SimSun" font-size="75" font-weight="400" olab:comment="">
			<tspan x="3029" style="font-kerning:none">16</tspan>
		</text>
		<text x="3029" dominant-baseline="auto" y="334" fill="black" font-family="Arial,'MS PGothic',SimSun" font-size="75" font-weight="400" olab:comment="">
			<tspan x="3029" style="font-kerning:none">16</tspan>
		</text>
		<text x="3029" dominant-baseline="auto" y="452" fill="black" font-family="Arial,'MS PGothic',SimSun" font-size="75" font-weight="400" olab:comment="">
			<tspan x="3029" style="font-kerning:none">17</tspan>
		</text>
		<text x="3171" dominant-baseline="auto" y="97" fill="black" font-family="Arial,'MS PGothic',SimSun" font-size="75" font-weight="400" olab:comment="">
			<tspan x="3171" style="font-kerning:none">16</tspan>
		</text>
		<text x="3171" dominant-baseline="auto" y="215" fill="black" font-family="Arial,'MS PGothic',SimSun" font-size="75" font-weight="400" olab:comment="">
			<tspan x="3171" style="font-kerning:none">16</tspan>
		</text>
		<text x="3171" dominant-baseline="auto" y="334" fill="black" font-family="Arial,'MS PGothic',SimSun" font-size="75" font-weight="400" olab:comment="">
			<tspan x="3171" style="font-kerning:none">16</tspan>
		</text>
		<text x="3171" dominant-baseline="auto" y="452" fill="black" font-family="Arial,'MS PGothic',SimSun" font-size="75" font-weight="400" olab:comment="">
			<tspan x="3171" style="font-kerning:none">22</tspan>
		</text>
		<text x="3312" dominant-baseline="auto" y="97" fill="black" font-family="Arial,'MS PGothic',SimSun" font-size="75" font-weight="400" olab:comment="">
			<tspan x="3312" style="font-kerning:none">18</tspan>
		</text>
		<text x="3312" dominant-baseline="auto" y="215" fill="black" font-family="Arial,'MS PGothic',SimSun" font-size="75" font-weight="400" olab:comment="">
			<tspan x="3312" style="font-kerning:none">18</tspan>
		</text>
		<text x="3312" dominant-baseline="auto" y="334" fill="black" font-family="Arial,'MS PGothic',SimSun" font-size="75" font-weight="400" olab:comment="">
			<tspan x="3312" style="font-kerning:none">17</tspan>
		</text>
		<text x="3312" dominant-baseline="auto" y="452" fill="black" font-family="Arial,'MS PGothic',SimSun" font-size="75" font-weight="400" olab:comment="">
			<tspan x="3312" style="font-kerning:none">16</tspan>
		</text>
		<text x="3454" dominant-baseline="auto" y="97" fill="black" font-family="Arial,'MS PGothic',SimSun" font-size="75" font-weight="400" olab:comment="">
			<tspan x="3454" style="font-kerning:none">22</tspan>
		</text>
		<text x="3454" dominant-baseline="auto" y="215" fill="black" font-family="Arial,'MS PGothic',SimSun" font-size="75" font-weight="400" olab:comment="">
			<tspan x="3454" style="font-kerning:none">22</tspan>
		</text>
		<text x="3454" dominant-baseline="auto" y="334" fill="black" font-family="Arial,'MS PGothic',SimSun" font-size="75" font-weight="400" olab:comment="">
			<tspan x="3454" style="font-kerning:none">23</tspan>
		</text>
		<text x="3454" dominant-baseline="auto" y="452" fill="black" font-family="Arial,'MS PGothic',SimSun" font-size="75" font-weight="400" olab:comment="">
			<tspan x="3454" style="font-kerning:none">18</tspan>
		</text>
	</g>
	<polyline points="449,130 3567,130" style="stroke: #C0C0C0;stroke-width: 6;stroke-linecap:butt;stroke-linejoin:round" fill="none" olab:comment=""/>
	<polyline points="449,249 3567,249" style="stroke: #C0C0C0;stroke-width: 6;stroke-linecap:butt;stroke-linejoin:round" fill="none" olab:comment=""/>
	<polyline points="449,367 3567,367" style="stroke: #C0C0C0;stroke-width: 6;stroke-linecap:butt;stroke-linejoin:round" fill="none" olab:comment=""/>
	<polyline points="591,12 591,485" style="stroke: #C0C0C0;stroke-width: 6;stroke-linecap:butt;stroke-linejoin:round" fill="none" olab:comment=""/>
	<polyline points="732,12 732,485" style="stroke: #C0C0C0;stroke-width: 6;stroke-linecap:butt;stroke-linejoin:round" fill="none" olab:comment=""/>
	<polyline points="874,12 874,485" style="stroke: #C0C0C0;stroke-width: 6;stroke-linecap:butt;stroke-linejoin:round" fill="none" olab:comment=""/>
	<polyline points="1016,12 1016,485" style="stroke: #C0C0C0;stroke-width: 6;stroke-linecap:butt;stroke-linejoin:round" fill="none" olab:comment=""/>
	<polyline points="1158,12 1158,485" style="stroke: #C0C0C0;stroke-width: 6;stroke-linecap:butt;stroke-linejoin:round" fill="none" olab:comment=""/>
	<polyline points="1299,12 1299,485" style="stroke: #C0C0C0;stroke-width: 6;stroke-linecap:butt;stroke-linejoin:round" fill="none" olab:comment=""/>
	<polyline points="1441,12 1441,485" style="stroke: #C0C0C0;stroke-width: 6;stroke-linecap:butt;stroke-linejoin:round" fill="none" olab:comment=""/>
	<polyline points="1583,12 1583,485" style="stroke: #C0C0C0;stroke-width: 6;stroke-linecap:butt;stroke-linejoin:round" fill="none" olab:comment=""/>
	<polyline points="1725,12 1725,485" style="stroke: #C0C0C0;stroke-width: 6;stroke-linecap:butt;stroke-linejoin:round" fill="none" olab:comment=""/>
	<polyline points="1866,12 1866,485" style="stroke: #C0C0C0;stroke-width: 6;stroke-linecap:butt;stroke-linejoin:round" fill="none" olab:comment=""/>
	<polyline points="2008,12 2008,485" style="stroke: #C0C0C0;stroke-width: 6;stroke-linecap:butt;stroke-linejoin:round" fill="none" olab:comment=""/>
	<polyline points="2150,12 2150,485" style="stroke: #C0C0C0;stroke-width: 6;stroke-linecap:butt;stroke-linejoin:round" fill="none" olab:comment=""/>
	<polyline points="2291,12 2291,485" style="stroke: #C0C0C0;stroke-width: 6;stroke-linecap:butt;stroke-linejoin:round" fill="none" olab:comment=""/>
	<polyline points="2433,12 2433,485" style="stroke: #C0C0C0;stroke-width: 6;stroke-linecap:butt;stroke-linejoin:round" fill="none" olab:comment=""/>
	<polyline points="2575,12 2575,485" style="stroke: #C0C0C0;stroke-width: 6;stroke-linecap:butt;stroke-linejoin:round" fill="none" olab:comment=""/>
	<polyline points="2717,12 2717,485" style="stroke: #C0C0C0;stroke-width: 6;stroke-linecap:butt;stroke-linejoin:round" fill="none" olab:comment=""/>
	<polyline points="2858,12 2858,485" style="stroke: #C0C0C0;stroke-width: 6;stroke-linecap:butt;stroke-linejoin:round" fill="none" olab:comment=""/>
	<polyline points="3000,12 3000,485" style="stroke: #C0C0C0;stroke-width: 6;stroke-linecap:butt;stroke-linejoin:round" fill="none" olab:comment=""/>
	<polyline points="3142,12 3142,485" style="stroke: #C0C0C0;stroke-width: 6;stroke-linecap:butt;stroke-linejoin:round" fill="none" olab:comment=""/>
	<polyline points="3284,12 3284,485" style="stroke: #C0C0C0;stroke-width: 6;stroke-linecap:butt;stroke-linejoin:round" fill="none" olab:comment=""/>
	<polyline points="3425,12 3425,485" style="stroke: #C0C0C0;stroke-width: 6;stroke-linecap:butt;stroke-linejoin:round" fill="none" olab:comment=""/>
	<polyline points="449,12 449,485" style="stroke: black;stroke-width: 6;stroke-linecap:square;stroke-linejoin:round" fill="none" olab:comment=""/>
	<polyline points="3567,12 3567,485" style="stroke: black;stroke-width: 6;stroke-linecap:square;stroke-linejoin:round" fill="none" olab:comment=""/>
	<polyline points="449,71 415,71" style="stroke: black;stroke-width: 6;stroke-linecap:butt;stroke-linejoin:round" fill="none" olab:comment=""/>
	<polyline points="449,189 415,189" style="stroke: black;stroke-width: 6;stroke-linecap:butt;stroke-linejoin:round" fill="none" olab:comment=""/>
	<polyline points="449,308 415,308" style="stroke: black;stroke-width: 6;stroke-linecap:butt;stroke-linejoin:round" fill="none" olab:comment=""/>
	<polyline points="449,426 415,426" style="stroke: black;stroke-width: 6;stroke-linecap:butt;stroke-linejoin:round" fill="none" olab:comment=""/>
	<polyline points="449,485 3567,485" style="stroke: black;stroke-width: 6;stroke-linecap:square;stroke-linejoin:round" fill="none" olab:comment=""/>
	<polyline points="449,12 3567,12" style="stroke: black;stroke-width: 6;stroke-linecap:square;stroke-linejoin:round" fill="none" olab:comment=""/>
	<polyline points="520,485 520,519" style="stroke: black;stroke-width: 6;stroke-linecap:butt;stroke-linejoin:round" fill="none" olab:comment=""/>
	<polyline points="662,485 662,519" style="stroke: black;stroke-width: 6;stroke-linecap:butt;stroke-linejoin:round" fill="none" olab:comment=""/>
	<polyline points="803,485 803,519" style="stroke: black;stroke-width: 6;stroke-linecap:butt;stroke-linejoin:round" fill="none" olab:comment=""/>
	<polyline points="945,485 945,519" style="stroke: black;stroke-width: 6;stroke-linecap:butt;stroke-linejoin:round" fill="none" olab:comment=""/>
	<polyline points="1087,485 1087,519" style="stroke: black;stroke-width: 6;stroke-linecap:butt;stroke-linejoin:round" fill="none" olab:comment=""/>
	<polyline points="1229,485 1229,519" style="stroke: black;stroke-width: 6;stroke-linecap:butt;stroke-linejoin:round" fill="none" olab:comment=""/>
	<polyline points="1370,485 1370,519" style="stroke: black;stroke-width: 6;stroke-linecap:butt;stroke-linejoin:round" fill="none" olab:comment=""/>
	<polyline points="1512,485 1512,519" style="stroke: black;stroke-width: 6;stroke-linecap:butt;stroke-linejoin:round" fill="none" olab:comment=""/>
	<polyline points="1654,485 1654,519" style="stroke: black;stroke-width: 6;stroke-linecap:butt;stroke-linejoin:round" fill="none" olab:comment=""/>
	<polyline points="1795,485 1795,519" style="stroke: black;stroke-width: 6;stroke-linecap:butt;stroke-linejoin:round" fill="none" olab:comment=""/>
	<polyline points="1937,485 1937,519" style="stroke: black;stroke-width: 6;stroke-linecap:butt;stroke-linejoin:round" fill="none" olab:comment=""/>
	<polyline points="2079,485 2079,519" style="stroke: black;stroke-width: 6;stroke-linecap:butt;stroke-linejoin:round" fill="none" olab:comment=""/>
	<polyline points="2221,485 2221,519" style="stroke: black;stroke-width: 6;stroke-linecap:butt;stroke-linejoin:round" fill="none" olab:comment=""/>
	<polyline points="2362,485 2362,519" style="stroke: black;stroke-width: 6;stroke-linecap:butt;stroke-linejoin:round" fill="none" olab:comment=""/>
	<polyline points="2504,485 2504,519" style="stroke: black;stroke-width: 6;stroke-linecap:butt;stroke-linejoin:round" fill="none" olab:comment=""/>
	<polyline points="2646,485 2646,519" style="stroke: black;stroke-width: 6;stroke-linecap:butt;stroke-linejoin:round" fill="none" olab:comment=""/>
	<polyline points="2787,485 2787,519" style="stroke: black;stroke-width: 6;stroke-linecap:butt;stroke-linejoin:round" fill="none" olab:comment=""/>
	<polyline points="2929,485 2929,519" style="stroke: black;stroke-width: 6;stroke-linecap:butt;stroke-linejoin:round" fill="none" olab:comment=""/>
	<polyline points="3071,485 3071,519" style="stroke: black;stroke-width: 6;stroke-linecap:butt;stroke-linejoin:round" fill="none" olab:comment=""/>
	<polyline points="3213,485 3213,519" style="stroke: black;stroke-width: 6;stroke-linecap:butt;stroke-linejoin:round" fill="none" olab:comment=""/>
	<polyline points="3354,485 3354,519" style="stroke: black;stroke-width: 6;stroke-linecap:butt;stroke-linejoin:round" fill="none" olab:comment=""/>
	<polyline points="3496,485 3496,519" style="stroke: black;stroke-width: 6;stroke-linecap:butt;stroke-linejoin:round" fill="none" olab:comment=""/>
	<text x="153" dominant-baseline="auto" y="94" fill="black" font-family="Arial,'MS PGothic',SimSun" font-size="75" font-weight="400" olab:comment="">
		<tspan x="153" style="font-kerning:none">Overall</tspan>
	</text>
	<text x="139" dominant-baseline="auto" y="212" fill="black" font-family="Arial,'MS PGothic',SimSun" font-size="75" font-weight="400" olab:comment="">
		<tspan x="139" style="font-kerning:none">Internal</tspan>
	</text>
	<text x="116" dominant-baseline="auto" y="331" fill="black" font-family="Arial,'MS PGothic',SimSun" font-size="75" font-weight="400" olab:comment="">
		<tspan x="116" style="font-kerning:none">External</tspan>
	</text>
	<text x="-3" dominant-baseline="auto" y="449" fill="black" font-family="Arial,'MS PGothic',SimSun" font-size="75" font-weight="400" olab:comment="">
		<tspan x="-3" style="font-kerning:none">Prospective</tspan>
	</text>
	<text x="0" dominant-baseline="auto" y="0" fill="black" font-family="Arial,'MS PGothic',SimSun" font-size="75" font-weight="400" transform="matrix(-1.83698e-16 -1 0.999999 -1.83698e-16 546 848)" olab:comment="">
		<tspan x="0" style="font-kerning:none">Virchow2</tspan>
	</text>
	<text x="0" dominant-baseline="auto" y="0" fill="black" font-family="Arial,'MS PGothic',SimSun" font-size="75" font-weight="400" transform="matrix(-1.83698e-16 -1 0.999999 -1.83698e-16 688 836)" olab:comment="">
		<tspan x="0" style="font-kerning:none">LiteFM-L</tspan>
	</text>
	<text x="0" dominant-baseline="auto" y="0" fill="black" font-family="Arial,'MS PGothic',SimSun" font-size="75" font-weight="400" transform="matrix(-1.83698e-16 -1 0.999999 -1.83698e-16 829 769)" olab:comment="">
		<tspan x="0" style="font-kerning:none">LiteFM</tspan>
	</text>
	<text x="0" dominant-baseline="auto" y="0" fill="black" font-family="Arial,'MS PGothic',SimSun" font-size="75" font-weight="400" transform="matrix(-1.83698e-16 -1 0.999999 -1.83698e-16 971 970)" olab:comment="">
		<tspan x="0" style="font-kerning:none">LiteVirchow2</tspan>
	</text>
	<text x="0" dominant-baseline="auto" y="0" fill="black" font-family="Arial,'MS PGothic',SimSun" font-size="75" font-weight="400" transform="matrix(-1.83698e-16 -1 0.999999 -1.83698e-16 1113 965)" olab:comment="">
		<tspan x="0" style="font-kerning:none">H-Optimus-1</tspan>
	</text>
	<text x="0" dominant-baseline="auto" y="0" fill="black" font-family="Arial,'MS PGothic',SimSun" font-size="75" font-weight="400" transform="matrix(-1.83698e-16 -1 0.999999 -1.83698e-16 1255 844)" olab:comment="">
		<tspan x="0" style="font-kerning:none">LiteFM-S</tspan>
	</text>
	<text x="0" dominant-baseline="auto" y="0" fill="black" font-family="Arial,'MS PGothic',SimSun" font-size="75" font-weight="400" transform="matrix(-1.83698e-16 -1 0.999999 -1.83698e-16 1396 709)" olab:comment="">
		<tspan x="0" style="font-kerning:none">UNI2</tspan>
	</text>
	<text x="0" dominant-baseline="auto" y="0" fill="black" font-family="Arial,'MS PGothic',SimSun" font-size="75" font-weight="400" transform="matrix(-1.83698e-16 -1 0.999999 -1.83698e-16 1538 801)" olab:comment="">
		<tspan x="0" style="font-kerning:none">mSTAR</tspan>
	</text>
	<text x="0" dominant-baseline="auto" y="0" fill="black" font-family="Arial,'MS PGothic',SimSun" font-size="75" font-weight="400" transform="matrix(-1.83698e-16 -1 0.999999 -1.83698e-16 1680 755)" olab:comment="">
		<tspan x="0" style="font-kerning:none">GPFM</tspan>
	</text>
	<text x="0" dominant-baseline="auto" y="0" fill="black" font-family="Arial,'MS PGothic',SimSun" font-size="75" font-weight="400" transform="matrix(-1.83698e-16 -1 0.999999 -1.83698e-16 1821 667)" olab:comment="">
		<tspan x="0" style="font-kerning:none">UNI</tspan>
	</text>
	<text x="0" dominant-baseline="auto" y="0" fill="black" font-family="Arial,'MS PGothic',SimSun" font-size="75" font-weight="400" transform="matrix(-1.83698e-16 -1 0.999999 -1.83698e-16 1963 769)" olab:comment="">
		<tspan x="0" style="font-kerning:none">Phikon</tspan>
	</text>
	<text x="0" dominant-baseline="auto" y="0" fill="black" font-family="Arial,'MS PGothic',SimSun" font-size="75" font-weight="400" transform="matrix(-1.83698e-16 -1 0.999999 -1.83698e-16 2105 1032)" olab:comment="">
		<tspan x="0" style="font-kerning:none">Prov-GigaPath</tspan>
	</text>
	<text x="0" dominant-baseline="auto" y="0" fill="black" font-family="Arial,'MS PGothic',SimSun" font-size="75" font-weight="400" transform="matrix(-1.83698e-16 -1 0.999999 -1.83698e-16 2247 811)" olab:comment="">
		<tspan x="0" style="font-kerning:none">Phikon2</tspan>
	</text>
	<text x="0" dominant-baseline="auto" y="0" fill="black" font-family="Arial,'MS PGothic',SimSun" font-size="75" font-weight="400" transform="matrix(-1.83698e-16 -1 0.999999 -1.83698e-16 2388 812)" olab:comment="">
		<tspan x="0" style="font-kerning:none">CONCH</tspan>
	</text>
	<text x="0" dominant-baseline="auto" y="0" fill="black" font-family="Arial,'MS PGothic',SimSun" font-size="75" font-weight="400" transform="matrix(-1.83698e-16 -1 0.999999 -1.83698e-16 2530 917)" olab:comment="">
		<tspan x="0" style="font-kerning:none">CONCH1.5</tspan>
	</text>
	<text x="0" dominant-baseline="auto" y="0" fill="black" font-family="Arial,'MS PGothic',SimSun" font-size="75" font-weight="400" transform="matrix(-1.83698e-16 -1 0.999999 -1.83698e-16 2672 806)" olab:comment="">
		<tspan x="0" style="font-kerning:none">Virchow</tspan>
	</text>
	<text x="0" dominant-baseline="auto" y="0" fill="black" font-family="Arial,'MS PGothic',SimSun" font-size="75" font-weight="400" transform="matrix(-1.83698e-16 -1 0.999999 -1.83698e-16 2813 940)" olab:comment="">
		<tspan x="0" style="font-kerning:none">CTransPath</tspan>
	</text>
	<text x="0" dominant-baseline="auto" y="0" fill="black" font-family="Arial,'MS PGothic',SimSun" font-size="75" font-weight="400" transform="matrix(-1.83698e-16 -1 0.999999 -1.83698e-16 2955 755)" olab:comment="">
		<tspan x="0" style="font-kerning:none">MUSK</tspan>
	</text>
	<text x="0" dominant-baseline="auto" y="0" fill="black" font-family="Arial,'MS PGothic',SimSun" font-size="75" font-weight="400" transform="matrix(-1.83698e-16 -1 0.999999 -1.83698e-16 3097 701)" olab:comment="">
		<tspan x="0" style="font-kerning:none">PLIP</tspan>
	</text>
	<text x="0" dominant-baseline="auto" y="0" fill="black" font-family="Arial,'MS PGothic',SimSun" font-size="75" font-weight="400" transform="matrix(-1.83698e-16 -1 0.999999 -1.83698e-16 3239 763)" olab:comment="">
		<tspan x="0" style="font-kerning:none">CHIEF</tspan>
	</text>
	<text x="0" dominant-baseline="auto" y="0" fill="black" font-family="Arial,'MS PGothic',SimSun" font-size="75" font-weight="400" transform="matrix(-1.83698e-16 -1 0.999999 -1.83698e-16 3380 802)" olab:comment="">
		<tspan x="0" style="font-kerning:none">Hibou-L</tspan>
	</text>
	<text x="0" dominant-baseline="auto" y="0" fill="black" font-family="Arial,'MS PGothic',SimSun" font-size="75" font-weight="400" transform="matrix(-1.83698e-16 -1 0.999999 -1.83698e-16 3522 861)" olab:comment="">
		<tspan x="0" style="font-kerning:none">Resnet50</tspan>
	</text>
</svg>

